<svg xmlns="http://www.w3.org/2000/svg" width="131" height="41" viewBox="0 0 131 41"><defs><style>.a{fill:#fff;}.b,.c{fill:#e6e6e6;}.c{opacity:0.5;}</style></defs><g transform="translate(0 0.037)"><g transform="translate(32.637 32.614)"><path class="a" d="M116.926,114.218a3.08,3.08,0,0,1-.62,2.009,2.426,2.426,0,0,1-3.486,0,3.025,3.025,0,0,1-.62-2.009,2.76,2.76,0,0,1,.65-1.979,2.227,2.227,0,0,1,1.743-.738,2.134,2.134,0,0,1,1.743.738A3.041,3.041,0,0,1,116.926,114.218Zm-4.342,0a2.813,2.813,0,0,0,.5,1.772,1.754,1.754,0,0,0,1.447.62,1.814,1.814,0,0,0,1.477-.62,2.813,2.813,0,0,0,.5-1.772,2.665,2.665,0,0,0-.5-1.743,2,2,0,0,0-2.895,0A2.511,2.511,0,0,0,112.584,114.218Z" transform="translate(-112.2 -111.205)"/><path class="a" d="M133.013,120.106a1.469,1.469,0,0,1-1.329-.679h-.03v2.393H131.3v-5.73h.3l.059.561h.03a1.459,1.459,0,0,1,1.3-.65,1.429,1.429,0,0,1,1.211.532,2.5,2.5,0,0,1,.414,1.536,2.291,2.291,0,0,1-.443,1.506A1.317,1.317,0,0,1,133.013,120.106Zm0-.325a1.124,1.124,0,0,0,.945-.443,2.174,2.174,0,0,0,.325-1.27c0-1.152-.414-1.743-1.241-1.743a1.176,1.176,0,0,0-1,.384,1.952,1.952,0,0,0-.325,1.241v.118a2.211,2.211,0,0,0,.3,1.329A1.14,1.14,0,0,0,133.013,119.781Z" transform="translate(-125.658 -114.375)"/><path class="a" d="M145.4,117.738a3.322,3.322,0,0,0,.591-.059v.3a1.9,1.9,0,0,1-.591.089,1.01,1.01,0,0,1-.768-.266,1.226,1.226,0,0,1-.236-.886v-2.54H143.8v-.207l.591-.177.177-.886h.177v.945H145.9v.325h-1.152v2.481a1.364,1.364,0,0,0,.148.679A.608.608,0,0,0,145.4,117.738Z" transform="translate(-134.466 -112.332)"/><path class="a" d="M153.3,111.754c0-.236.089-.354.236-.354a.179.179,0,0,1,.177.089.628.628,0,0,1,0,.532.179.179,0,0,1-.177.089C153.389,112.109,153.3,111.991,153.3,111.754Zm.414,5.051h-.354v-3.929h.354Z" transform="translate(-141.16 -111.134)"/><path class="a" d="M163.433,120.188v-2.57a1.256,1.256,0,0,0-.236-.827.848.848,0,0,0-.679-.266,1.116,1.116,0,0,0-.886.325,1.491,1.491,0,0,0-.3,1.034v2.3h-.354V117.5c0-.65-.3-1-.916-1a1.138,1.138,0,0,0-.916.354,1.927,1.927,0,0,0-.3,1.152v2.186H158.5v-3.929h.3l.089.532h.03a.98.98,0,0,1,.473-.443,1.239,1.239,0,0,1,.65-.148,1.092,1.092,0,0,1,1.182.709h0a1.447,1.447,0,0,1,.5-.532,1.517,1.517,0,0,1,.738-.177,1.272,1.272,0,0,1,.975.354,1.609,1.609,0,0,1,.325,1.093v2.57h-.325Z" transform="translate(-144.824 -114.516)"/><path class="a" d="M179.9,111.754c0-.236.089-.354.236-.354a.179.179,0,0,1,.177.089.628.628,0,0,1,0,.532.179.179,0,0,1-.177.089C179.989,112.109,179.9,111.991,179.9,111.754Zm.414,5.051h-.354v-3.929h.354Z" transform="translate(-159.902 -111.134)"/><path class="a" d="M186.706,119.154a1,1,0,0,1-.414.827,2.063,2.063,0,0,1-1.152.3,2.8,2.8,0,0,1-1.241-.236v-.384a2.645,2.645,0,0,0,1.241.3,1.515,1.515,0,0,0,.886-.207.548.548,0,0,0,.3-.5.676.676,0,0,0-.236-.5,1.99,1.99,0,0,0-.8-.384,6.687,6.687,0,0,1-.827-.354,1.018,1.018,0,0,1-.354-.354.9.9,0,0,1,.266-1.182,1.725,1.725,0,0,1,1.034-.266,3.4,3.4,0,0,1,1.211.236l-.148.325a3.024,3.024,0,0,0-1.063-.236,1.77,1.77,0,0,0-.768.148.556.556,0,0,0-.3.443.609.609,0,0,0,.207.5,3.274,3.274,0,0,0,.857.414,2.693,2.693,0,0,1,.768.354.821.821,0,0,1,.354.354A.427.427,0,0,1,186.706,119.154Z" transform="translate(-162.721 -114.516)"/><path class="a" d="M197.3,120.176a1.672,1.672,0,0,1-1.329-.532,2.59,2.59,0,0,1,0-2.983,1.5,1.5,0,0,1,1.241-.561,1.312,1.312,0,0,1,1.093.473,2.043,2.043,0,0,1,.414,1.329v.3h-2.836a1.785,1.785,0,0,0,.384,1.241,1.3,1.3,0,0,0,1.063.414,3.322,3.322,0,0,0,.591-.059,2.663,2.663,0,0,0,.65-.207v.325c-.236.089-.414.148-.62.207A2.317,2.317,0,0,1,197.3,120.176Zm-.089-3.781a1.143,1.143,0,0,0-.916.384,1.854,1.854,0,0,0-.414,1.093h2.422a1.628,1.628,0,0,0-.3-1.063A.906.906,0,0,0,197.213,116.4Z" transform="translate(-170.894 -114.446)"/><path class="a" d="M211.006,120.258H208.2v-.236l2.334-3.4h-2.156V116.3h2.629v.236l-2.363,3.4h2.363Z" transform="translate(-179.843 -114.587)"/><path class="a" d="M225.536,120.329,224,116.4h.384l1,2.688a6.157,6.157,0,0,1,.3.886h.03c.089-.325.207-.62.3-.916l1-2.658h.384l-1.536,3.929Z" transform="translate(-190.976 -114.657)"/><path class="a" d="M239.886,118.138a2.145,2.145,0,0,1-.473,1.506,1.65,1.65,0,0,1-1.3.532,1.833,1.833,0,0,1-.916-.236,1.537,1.537,0,0,1-.591-.709,2.579,2.579,0,0,1-.207-1.093,2.145,2.145,0,0,1,.473-1.506,1.629,1.629,0,0,1,1.27-.532,1.587,1.587,0,0,1,1.27.532A2.145,2.145,0,0,1,239.886,118.138Zm-3.1,0a2.029,2.029,0,0,0,.354,1.27,1.36,1.36,0,0,0,2.009,0,2.453,2.453,0,0,0,0-2.54,1.238,1.238,0,0,0-1-.443,1.2,1.2,0,0,0-1,.443A1.972,1.972,0,0,0,236.784,118.138Z" transform="translate(-199.713 -114.446)"/><path class="a" d="M252.806,119.154a1,1,0,0,1-.414.827,2.063,2.063,0,0,1-1.152.3A2.8,2.8,0,0,1,250,120.04v-.384a2.645,2.645,0,0,0,1.241.3,1.515,1.515,0,0,0,.886-.207.548.548,0,0,0,.3-.5.676.676,0,0,0-.236-.5,1.99,1.99,0,0,0-.8-.384,6.69,6.69,0,0,1-.827-.354,1.018,1.018,0,0,1-.354-.354.9.9,0,0,1,.266-1.182,1.725,1.725,0,0,1,1.034-.266,3.4,3.4,0,0,1,1.211.236l-.148.325a3.024,3.024,0,0,0-1.063-.236,1.77,1.77,0,0,0-.768.148.556.556,0,0,0-.3.443.608.608,0,0,0,.207.5,3.274,3.274,0,0,0,.857.414,2.693,2.693,0,0,1,.768.354.821.821,0,0,1,.354.354A.427.427,0,0,1,252.806,119.154Z" transform="translate(-209.296 -114.516)"/><path class="a" d="M270.986,118.138a2.145,2.145,0,0,1-.473,1.506,1.65,1.65,0,0,1-1.3.532,1.833,1.833,0,0,1-.916-.236,1.537,1.537,0,0,1-.591-.709,2.579,2.579,0,0,1-.207-1.093,2.145,2.145,0,0,1,.473-1.506,1.629,1.629,0,0,1,1.27-.532,1.587,1.587,0,0,1,1.27.532A2.3,2.3,0,0,1,270.986,118.138Zm-3.131,0a2.029,2.029,0,0,0,.354,1.27,1.36,1.36,0,0,0,2.009,0,2.453,2.453,0,0,0,0-2.54,1.238,1.238,0,0,0-1-.443,1.2,1.2,0,0,0-1,.443A1.972,1.972,0,0,0,267.854,118.138Z" transform="translate(-221.627 -114.446)"/><path class="a" d="M282.484,116.23v2.54a1.348,1.348,0,0,0,.236.857,1.01,1.01,0,0,0,.768.266,1.327,1.327,0,0,0,1.034-.354,1.73,1.73,0,0,0,.325-1.152V116.2h.354v3.929h-.3l-.059-.532h-.03a1.479,1.479,0,0,1-1.359.62c-.886,0-1.359-.473-1.359-1.447V116.2h.384Z" transform="translate(-231.914 -114.516)"/><path class="a" d="M296.2,117.738a3.322,3.322,0,0,0,.591-.059v.3a1.9,1.9,0,0,1-.591.089,1.01,1.01,0,0,1-.768-.266,1.226,1.226,0,0,1-.236-.886v-2.54H294.6v-.207l.591-.177.177-.886h.177v.945H296.7v.325h-1.152v2.481a1.364,1.364,0,0,0,.148.679A.608.608,0,0,0,296.2,117.738Z" transform="translate(-240.722 -112.332)"/><path class="a" d="M304.1,111.754c0-.236.089-.354.236-.354a.179.179,0,0,1,.177.089.628.628,0,0,1,0,.532.179.179,0,0,1-.177.089C304.189,112.109,304.1,111.991,304.1,111.754Zm.414,5.051h-.354v-3.929h.354Z" transform="translate(-247.416 -111.134)"/><path class="a" d="M309.754,116.242H309.4V110.6h.354Z" transform="translate(-251.15 -110.57)"/><path class="a" d="M316.006,119.154a1,1,0,0,1-.414.827,2.063,2.063,0,0,1-1.152.3,2.8,2.8,0,0,1-1.241-.236v-.384a2.645,2.645,0,0,0,1.241.3,1.515,1.515,0,0,0,.886-.207.548.548,0,0,0,.3-.5.676.676,0,0,0-.236-.5,1.99,1.99,0,0,0-.8-.384,6.689,6.689,0,0,1-.827-.354,1.018,1.018,0,0,1-.354-.354.9.9,0,0,1,.266-1.182,1.725,1.725,0,0,1,1.034-.266,3.4,3.4,0,0,1,1.211.236l-.118.3a3.024,3.024,0,0,0-1.063-.236,1.77,1.77,0,0,0-.768.148.556.556,0,0,0-.3.443.608.608,0,0,0,.207.5,3.274,3.274,0,0,0,.857.414,2.693,2.693,0,0,1,.768.354.821.821,0,0,1,.354.354A.58.58,0,0,1,316.006,119.154Z" transform="translate(-253.828 -114.516)"/><path class="a" d="M332.284,112.225a1.824,1.824,0,0,1,.738.148,1.892,1.892,0,0,1,.561.532h.03c0-.3-.03-.591-.03-.886V110.6h.354v5.642H333.7l-.089-.591h-.03a1.486,1.486,0,0,1-1.3.679,1.6,1.6,0,0,1-1.241-.5,2.153,2.153,0,0,1-.443-1.477,2.6,2.6,0,0,1,.414-1.566A1.484,1.484,0,0,1,332.284,112.225Zm0,.325a1.143,1.143,0,0,0-.975.443,2.317,2.317,0,0,0-.325,1.329c0,1.122.443,1.684,1.3,1.684a1.151,1.151,0,0,0,.975-.384,2.049,2.049,0,0,0,.325-1.27v-.089a2.109,2.109,0,0,0-.3-1.3A1.181,1.181,0,0,0,332.284,112.55Z" transform="translate(-266.088 -110.57)"/><path class="a" d="M344.627,111.63l.03.059a11.969,11.969,0,0,1-.62,1.743H343.8c.059-.236.148-.532.207-.886a7.351,7.351,0,0,0,.177-.945h.443Z" transform="translate(-275.389 -111.275)"/><path class="a" d="M350.318,120.047l-.089-.62h-.03a1.661,1.661,0,0,1-.62.532,1.438,1.438,0,0,1-.738.148,1.316,1.316,0,0,1-.916-.3,1.112,1.112,0,0,1-.325-.827.978.978,0,0,1,.473-.886,2.605,2.605,0,0,1,1.388-.325l.738-.03v-.266a1.408,1.408,0,0,0-.236-.857.908.908,0,0,0-.738-.3,2.363,2.363,0,0,0-1.122.3l-.148-.325a2.943,2.943,0,0,1,1.27-.3,1.334,1.334,0,0,1,.975.325,1.524,1.524,0,0,1,.325,1.063v2.629h-.207Zm-1.447-.266a1.439,1.439,0,0,0,1-.354,1.343,1.343,0,0,0,.354-1v-.384l-.679.03a2.572,2.572,0,0,0-1.182.266.756.756,0,0,0-.354.679.711.711,0,0,0,.236.561A.832.832,0,0,0,348.87,119.781Z" transform="translate(-278.066 -114.375)"/><path class="a" d="M361.538,112.538h-.916v3.633h-.384v-3.633H359.5v-.207l.738-.148v-.3a1.763,1.763,0,0,1,.266-1.063,1.025,1.025,0,0,1,.886-.325,2.46,2.46,0,0,1,.65.089l-.089.325a2.047,2.047,0,0,0-.591-.089.733.733,0,0,0-.591.236,1.45,1.45,0,0,0-.177.8v.354h.916v.325Zm2.215,0h-.916v3.633h-.354v-3.633h-.738v-.207l.738-.148v-.3a1.763,1.763,0,0,1,.266-1.063,1.025,1.025,0,0,1,.886-.325,2.46,2.46,0,0,1,.65.089l-.089.325a2.047,2.047,0,0,0-.591-.089.733.733,0,0,0-.591.236,1.45,1.45,0,0,0-.177.8v.354h.916Zm.709-1.418c0-.236.089-.354.236-.354a.179.179,0,0,1,.177.089.628.628,0,0,1,0,.532.179.179,0,0,1-.177.089C364.551,111.475,364.462,111.357,364.462,111.12Zm.414,5.051h-.354v-3.929h.354Z" transform="translate(-286.451 -110.5)"/><path class="a" d="M382.6,120.176a1.714,1.714,0,0,1-1.329-.532,2.115,2.115,0,0,1-.473-1.477,2.287,2.287,0,0,1,.5-1.536,1.78,1.78,0,0,1,1.359-.532,2.6,2.6,0,0,1,.975.177l-.089.325a2.916,2.916,0,0,0-.886-.177,1.341,1.341,0,0,0-1.093.443,2.063,2.063,0,0,0-.384,1.3,1.785,1.785,0,0,0,.384,1.241,1.258,1.258,0,0,0,1.034.443,2.355,2.355,0,0,0,1-.207v.325A2.028,2.028,0,0,1,382.6,120.176Z" transform="translate(-301.46 -114.446)"/><path class="a" d="M395.718,116.242v-2.57a1.348,1.348,0,0,0-.236-.857,1.01,1.01,0,0,0-.768-.266,1.327,1.327,0,0,0-1.034.354,1.73,1.73,0,0,0-.325,1.152v2.186H393V110.6h.354v1.8l-.03.5h.03a1.148,1.148,0,0,1,.561-.5,1.8,1.8,0,0,1,.827-.148c.886,0,1.329.473,1.329,1.447v2.57h-.354Z" transform="translate(-310.056 -110.57)"/><path class="a" d="M408.718,120.047l-.089-.62h-.03a1.661,1.661,0,0,1-.62.532,1.438,1.438,0,0,1-.738.148,1.316,1.316,0,0,1-.916-.3,1.112,1.112,0,0,1-.325-.827.978.978,0,0,1,.473-.886,2.605,2.605,0,0,1,1.388-.325l.738-.03v-.266a1.408,1.408,0,0,0-.236-.857.908.908,0,0,0-.738-.3,2.363,2.363,0,0,0-1.122.3l-.148-.325a2.942,2.942,0,0,1,1.27-.3,1.334,1.334,0,0,1,.975.325,1.524,1.524,0,0,1,.325,1.063v2.629h-.207Zm-1.447-.266a1.439,1.439,0,0,0,1-.354,1.343,1.343,0,0,0,.354-1v-.384l-.679.03a2.572,2.572,0,0,0-1.182.266.756.756,0,0,0-.354.679.711.711,0,0,0,.236.561A.751.751,0,0,0,407.27,119.781Z" transform="translate(-319.216 -114.375)"/><path class="a" d="M421.6,116.089v.236l-.827.059a1.425,1.425,0,0,1,.325.886,1.143,1.143,0,0,1-.384.916,1.439,1.439,0,0,1-1,.354,1.333,1.333,0,0,1-.384-.03,1.042,1.042,0,0,0-.325.266.444.444,0,0,0-.118.325.31.31,0,0,0,.148.266.955.955,0,0,0,.473.089h.679a1.534,1.534,0,0,1,.975.266.914.914,0,0,1,.354.768,1.153,1.153,0,0,1-.5.975,2.506,2.506,0,0,1-1.447.325,1.847,1.847,0,0,1-1.152-.3.906.906,0,0,1-.414-.8.936.936,0,0,1,.266-.679,1.255,1.255,0,0,1,.679-.354,1.06,1.06,0,0,1-.3-.207.619.619,0,0,1-.118-.325.886.886,0,0,1,.5-.709.991.991,0,0,1-.532-.443,1.405,1.405,0,0,1-.207-.679,1.205,1.205,0,0,1,.384-.945,1.39,1.39,0,0,1,1-.354,1.453,1.453,0,0,1,.591.089H421.6Zm-3.19,4.608c0,.532.414.8,1.211.8,1.034,0,1.566-.325,1.566-.975a.555.555,0,0,0-.236-.5,1.357,1.357,0,0,0-.8-.148h-.679C418.768,119.84,418.414,120.135,418.414,120.7Zm.3-3.367a.958.958,0,0,0,.266.709,1.03,1.03,0,0,0,.738.266,1.191,1.191,0,0,0,.768-.236.983.983,0,0,0,.266-.738.93.93,0,0,0-1.034-1.034.983.983,0,0,0-.738.266A1.1,1.1,0,0,0,418.709,117.329Z" transform="translate(-327.671 -114.375)"/><path class="a" d="M433.3,120.176a1.672,1.672,0,0,1-1.329-.532,2.115,2.115,0,0,1-.473-1.477,2.246,2.246,0,0,1,.473-1.506,1.5,1.5,0,0,1,1.241-.561,1.312,1.312,0,0,1,1.093.473,2.042,2.042,0,0,1,.414,1.329v.3h-2.836a1.785,1.785,0,0,0,.384,1.241,1.264,1.264,0,0,0,1.063.414,3.322,3.322,0,0,0,.591-.059,2.664,2.664,0,0,0,.65-.207v.325c-.236.089-.414.148-.62.207A2.318,2.318,0,0,1,433.3,120.176Zm-.089-3.781a1.143,1.143,0,0,0-.916.384,1.854,1.854,0,0,0-.414,1.093h2.422a1.628,1.628,0,0,0-.3-1.063A.906.906,0,0,0,433.213,116.4Z" transform="translate(-337.184 -114.446)"/></g><path class="a" d="M121.82,51.526l-.5-2.363H121.2a7.241,7.241,0,0,1-2.481,2.127,7.373,7.373,0,0,1-3.1.561,5.586,5.586,0,0,1-3.9-1.27,4.653,4.653,0,0,1-1.418-3.633c0-3.367,2.688-5.14,8.094-5.287l2.836-.089V40.537a4.235,4.235,0,0,0-.857-2.895,3.494,3.494,0,0,0-2.688-.945,11.02,11.02,0,0,0-4.726,1.27l-.768-1.92a12.747,12.747,0,0,1,2.688-1.063,11.109,11.109,0,0,1,2.954-.384,6.408,6.408,0,0,1,4.431,1.329,5.6,5.6,0,0,1,1.447,4.254V51.555h-1.89Zm-5.7-1.8a5.114,5.114,0,0,0,3.692-1.3,4.833,4.833,0,0,0,1.359-3.633V43.284l-2.54.118a8.917,8.917,0,0,0-4.342.945,2.832,2.832,0,0,0-1.329,2.57,2.633,2.633,0,0,0,.827,2.1A3.55,3.55,0,0,0,116.119,49.724Z" transform="translate(-77.858 -24.406)"/><rect class="a" width="2.54" height="16.689" transform="translate(72.056 10.43)"/><path class="a" d="M204.183,17.244v.916l-2.983.916v1.152h2.983v14.71h2.54V20.227h4.254v-1.95h-4.254V17.185a5.386,5.386,0,0,1,.679-3.042,2.442,2.442,0,0,1,2.127-.945,8.184,8.184,0,0,1,2.511.473l.65-2.038a11,11,0,0,0-3.1-.532C205.985,11.1,204.183,13.138,204.183,17.244Z" transform="translate(-142.019 -7.847)"/><path class="a" d="M171.294,17.185a5.385,5.385,0,0,1,.679-3.042A2.442,2.442,0,0,1,174.1,13.2a8.184,8.184,0,0,1,2.511.473l.65-2.038a11,11,0,0,0-3.1-.532c-3.574,0-5.376,2.038-5.376,6.144v.916l-2.983.916v1.152h2.983v14.71h2.54V20.227h4.254v-1.95h-4.254V17.185Z" transform="translate(-117.031 -7.847)"/><path class="a" d="M279.428,35.4h-2.865l-4.372,6.38-4.4-6.38h-2.865l5.79,8.123L264.6,52.089h2.865l4.726-6.764,4.667,6.764h2.865l-6.114-8.566Z" transform="translate(-186.781 -24.97)"/><path class="a" d="M337.919,41.8a7.907,7.907,0,0,0-1.831-5.435,6.234,6.234,0,0,0-4.962-2.068,6.654,6.654,0,0,0-5.346,2.363,9.671,9.671,0,0,0-1.979,6.41,8.791,8.791,0,0,0,2.127,6.262,7.634,7.634,0,0,0,5.849,2.245,16.121,16.121,0,0,0,2.895-.236,14.07,14.07,0,0,0,2.54-.827V48.272a13.642,13.642,0,0,1-5.317,1.122,5.056,5.056,0,0,1-3.958-1.536,6.472,6.472,0,0,1-1.477-4.46h11.49V41.8Zm-11.431-.443a6.153,6.153,0,0,1,1.418-3.633,4.06,4.06,0,0,1,3.19-1.3,3.7,3.7,0,0,1,3.042,1.27A5.583,5.583,0,0,1,335.2,41.36Z" transform="translate(-228.566 -24.194)"/><g transform="translate(114.045 16.663)"><path class="a" d="M393.767,66.259H387.8V65.7l2.54-2.658q1.063-1.108,1.506-1.684a3.9,3.9,0,0,0,.62-1.122,2.912,2.912,0,0,0,.207-1.122,1.8,1.8,0,0,0-.561-1.388,2.035,2.035,0,0,0-1.447-.532,3.639,3.639,0,0,0-2.274.857l-.354-.443a3.985,3.985,0,0,1,2.658-1,2.744,2.744,0,0,1,1.95.679,2.4,2.4,0,0,1,.709,1.831,3.762,3.762,0,0,1-.473,1.831,11.3,11.3,0,0,1-1.743,2.186l-2.452,2.511v.03h5.081Z" transform="translate(-387.8 -56.57)"/><path class="a" d="M414.7,86.05c0-.414.177-.65.532-.65s.532.207.532.65c0,.414-.177.65-.532.65S414.7,86.493,414.7,86.05Z" transform="translate(-406.754 -76.863)"/><path class="a" d="M430.544,61.4a7.143,7.143,0,0,1-.768,3.722,2.562,2.562,0,0,1-2.334,1.211,2.528,2.528,0,0,1-2.274-1.241A6.95,6.95,0,0,1,424.4,61.4a7.1,7.1,0,0,1,.768-3.692,2.546,2.546,0,0,1,2.3-1.211,2.575,2.575,0,0,1,2.3,1.241A6.9,6.9,0,0,1,430.544,61.4Zm-5.435,0a7.125,7.125,0,0,0,.591,3.279,2.02,2.02,0,0,0,3.574-.03,7.209,7.209,0,0,0,.561-3.249,7.152,7.152,0,0,0-.561-3.22,2.032,2.032,0,0,0-3.6,0A7.152,7.152,0,0,0,425.109,61.4Z" transform="translate(-413.589 -56.5)"/></g><path class="b" d="M43.564,52.681,27.259,48.959A1.742,1.742,0,0,1,25.9,47.246V22.138a1.742,1.742,0,0,1,1.359-1.713L43.564,16.7a1.753,1.753,0,0,1,2.127,1.713V50.938A1.722,1.722,0,0,1,43.564,52.681Z" transform="translate(-18.25 -11.767)"/><path class="a" d="M17.664,35.952,1.359,32.259A1.742,1.742,0,0,1,0,30.546V5.438A1.742,1.742,0,0,1,1.359,3.725L17.664,0a1.753,1.753,0,0,1,2.127,1.713V34.238A1.714,1.714,0,0,1,17.664,35.952Z" transform="translate(0 0)"/><path class="c" d="M27.259,23.652A1.742,1.742,0,0,0,25.9,25.365V48.671l10.014,2.274a1.753,1.753,0,0,0,2.127-1.713V21.2Z" transform="translate(-18.25 -14.964)"/></g></svg>