<svg xmlns="http://www.w3.org/2000/svg" width="42" height="42" viewBox="0 0 42 42"><defs><style>.a{fill:#60b7ff;}.b{fill:#fd6930;}.c{fill:#fd5426;}.d{fill:#fff3ef;}.e{fill:#f1f0f0;}</style></defs><path class="a" d="M37.859,46.176a9.475,9.475,0,0,1-1.546-.128l-8.629-1.425a7.924,7.924,0,0,0-2.587,0l-8.629,1.425a9.051,9.051,0,0,1-7.616-2.2q-.084-.076-.166-.154a9.1,9.1,0,0,1-2.644-8.165l1.386-7.985a7.916,7.916,0,0,0,.011-2.651L6.019,16.3a9.05,9.05,0,0,1,2.2-7.615c.2-.219.411-.431.631-.631a9.051,9.051,0,0,1,7.616-2.2L25.1,7.276a7.919,7.919,0,0,0,2.587,0l8.629-1.425a9.051,9.051,0,0,1,7.616,2.2q.084.076.166.155A9.1,9.1,0,0,1,46.74,16.37l-1.387,8.005a7.917,7.917,0,0,0-.01,2.651L46.761,35.6a9.154,9.154,0,0,1-2.349,7.78c-.155.163-.317.321-.483.472a8.982,8.982,0,0,1-6.07,2.329ZM14.924,6.991a7.721,7.721,0,0,0-5.22,2c-.19.173-.373.356-.546.546a7.894,7.894,0,0,0-1.889,6.556l1.42,8.593a9.182,9.182,0,0,1-.012,3.074L7.291,35.744a7.832,7.832,0,0,0,2.27,7.031q.071.068.144.134A7.79,7.79,0,0,0,16.261,44.8l8.629-1.425a9.19,9.19,0,0,1,3,0L36.52,44.8a7.9,7.9,0,0,0,6.557-1.889c.143-.13.284-.267.417-.408a7.881,7.881,0,0,0,2.016-6.7l-1.418-8.569a9.18,9.18,0,0,1,.012-3.074l1.387-8.005A7.833,7.833,0,0,0,43.22,9.125q-.071-.067-.144-.134A7.9,7.9,0,0,0,36.52,7.1L27.891,8.527a9.19,9.19,0,0,1-3,0L16.261,7.1a8.2,8.2,0,0,0-1.337-.11Z" transform="translate(-5.39 -5.237)"/><path class="b" d="M27.178,6.755a20.426,20.426,0,0,0,0,40.852c11.279,0,19.578-9.145,19.578-20.426S38.458,6.755,27.178,6.755Zm0,32.911c-6.894,0-13.328-5.59-13.328-12.485S20.284,14.7,27.178,14.7a12.485,12.485,0,0,1,0,24.97Z" transform="translate(-6.181 -6.181)"/><path class="c" d="M234.775,6.755c-.428,0-.853.015-1.275.04a20.418,20.418,0,0,1,0,40.771c.422.026.847.04,1.275.04a20.426,20.426,0,1,0,0-40.852Z" transform="translate(-213.897 -6.181)"/><path class="d" d="M222.366,9.245h-3.638a.778.778,0,0,1-.778-.778V.778A.778.778,0,0,1,218.728,0h3.638a.778.778,0,0,1,.778.778v7.69A.778.778,0,0,1,222.366,9.245Z" transform="translate(-199.547)"/><path class="e" d="M242.452,0H239.9a.778.778,0,0,1,.778.778v7.69a.778.778,0,0,1-.778.778h2.55a.778.778,0,0,0,.778-.778V.778A.778.778,0,0,0,242.452,0Z" transform="translate(-219.639 0)"/><path class="d" d="M388.231,222.366v-3.638a.778.778,0,0,1,.778-.778h7.69a.778.778,0,0,1,.778.778v3.638a.778.778,0,0,1-.778.778h-7.69A.778.778,0,0,1,388.231,222.366Z" transform="translate(-355.476 -199.547)"/><path class="e" d="M460.4,217.95h-2.55a.778.778,0,0,1,.778.778v3.638a.778.778,0,0,1-.778.778h2.55a.778.778,0,0,0,.778-.778v-3.638A.778.778,0,0,0,460.4,217.95Z" transform="translate(-419.18 -199.547)"/><path class="d" d="M218.728,388.231h3.638a.778.778,0,0,1,.778.778v7.69a.778.778,0,0,1-.778.778h-3.638a.778.778,0,0,1-.778-.778v-7.69A.778.778,0,0,1,218.728,388.231Z" transform="translate(-199.547 -355.476)"/><path class="e" d="M242.452,388.231H239.9a.778.778,0,0,1,.778.778v7.69a.778.778,0,0,1-.778.778h2.55a.778.778,0,0,0,.778-.778v-7.69A.778.778,0,0,0,242.452,388.231Z" transform="translate(-219.639 -355.476)"/><path class="d" d="M9.245,218.728v3.638a.778.778,0,0,1-.778.778H.778A.778.778,0,0,1,0,222.366v-3.638a.778.778,0,0,1,.778-.778h7.69A.778.778,0,0,1,9.245,218.728Z" transform="translate(0 -199.547)"/><path class="e" d="M72.171,217.95h-2.55a.778.778,0,0,1,.778.778v3.638a.778.778,0,0,1-.778.778h2.55a.778.778,0,0,0,.778-.778v-3.638A.778.778,0,0,0,72.171,217.95Z" transform="translate(-63.703 -199.547)"/></svg>