<svg xmlns="http://www.w3.org/2000/svg" width="42" height="35.89" viewBox="0 0 42 35.89"><defs><style>.a{fill:#26a6fe;}.b{fill:#0593fc;}.c{fill:#fff3ef;}.d{fill:#f1f0f0;}.e{fill:#0182fc;}.f{fill:#0473ce;}.g{fill:#05e39c;}.h{fill:#00c285;}.i{fill:#fed2a4;}.j{fill:#ffbd86;}.k{fill:#07b27b;}</style></defs><path class="a" d="M25.381,150.326V128.7a1.968,1.968,0,0,1,1.988-1.947h33.9a1.968,1.968,0,0,1,1.988,1.947v21.627l-19.071,3.317Z" transform="translate(-23.359 -118.569)"/><path class="b" d="M421.09,126.752h2.488a1.947,1.947,0,0,0-1.947,1.947v21.627h-2.488V128.7A1.947,1.947,0,0,1,421.09,126.752Z" transform="translate(-417.121 -118.569)"/><path class="c" d="M92.366,182.424V162.853a1.115,1.115,0,0,0-1.128-1.1H61.509a1.115,1.115,0,0,0-1.128,1.1v19.571l15.95,3.317Z" transform="translate(-55.374 -150.667)"/><path class="d" d="M394.446,161.752h2.488a1.1,1.1,0,0,0-1.1,1.1v19.571h-2.488V162.853A1.1,1.1,0,0,1,394.446,161.752Z" transform="translate(-388.338 -150.667)"/><path class="b" d="M1.273,415.119H38.819a1.261,1.261,0,0,0,1.273-1.248v-1.83a1.067,1.067,0,0,0-1.078-1.057H24.293l-5.219,1.659-5.219-1.659H1.078A1.067,1.067,0,0,0,0,412.041v1.83A1.261,1.261,0,0,0,1.273,415.119Z" transform="translate(1.907 -379.23)"/><path class="e" d="M453,410.984h2.488a1.057,1.057,0,0,0-1.057,1.057v1.83a1.248,1.248,0,0,0,1.248,1.248h-2.488a1.248,1.248,0,0,1-1.248-1.248v-1.83A1.057,1.057,0,0,1,453,410.984Z" transform="translate(-451.946 -379.23)"/><path class="f" d="M188.861,413.051h6.1a2.068,2.068,0,0,0,2.068-2.068H186.793A2.068,2.068,0,0,0,188.861,413.051Z" transform="translate(-170.91 -379.229)"/><path class="g" d="M139.262,36.153a9.756,9.756,0,0,1,9.756,9.756v4.554a2.322,2.322,0,0,1-2.322,2.322h-4.647L140.072,57.2a.935.935,0,0,1-1.62,0l-1.977-4.419h-4.647a2.322,2.322,0,0,1-2.322-2.322V45.909A9.756,9.756,0,0,1,139.262,36.153Z" transform="translate(-118.145 -36.153)"/><path class="h" d="M241.9,36.153a9.852,9.852,0,0,1,1.244.079,9.758,9.758,0,0,0-8.512,9.677v4.554a2.322,2.322,0,0,0,2.322,2.322h-2.488a2.323,2.323,0,0,1-2.322-2.322V45.909A9.756,9.756,0,0,1,241.9,36.153Z" transform="translate(-220.896 -36.153)"/><path class="i" d="M147.719,325.439h13a2.02,2.02,0,1,0,0-4.039h-13a2.02,2.02,0,1,0,0,4.039Z" transform="translate(-133.212 -297.236)"/><path class="j" d="M298.824,321.4h2.488a2.02,2.02,0,1,0,0,4.039h-2.488a2.02,2.02,0,1,1,0-4.039Z" transform="translate(-284.451 -297.236)"/><path class="j" d="M225.025,321.4h-4.6v4.039h4.6Z" transform="translate(-201.696 -297.236)"/><circle class="c" cx="4.81" cy="4.81" r="4.81" transform="translate(16.305 4.033)"/><path class="k" d="M225.922,121.752h.028a.622.622,0,0,0,.455-.23l.857-1.057a.622.622,0,0,0-.966-.783l-.416.514-2.021-2.078a.622.622,0,1,0-.892.867l2.509,2.58A.622.622,0,0,0,225.922,121.752Z" transform="translate(-204.273 -111.002)"/></svg>